<?xml version="1.0" encoding="UTF-8" standalone="no"?>
<!-- Created with Inkscape (http://www.inkscape.org/) -->

<svg
   xmlns:osb="http://www.openswatchbook.org/uri/2009/osb"
   xmlns:dc="http://purl.org/dc/elements/1.1/"
   xmlns:cc="http://creativecommons.org/ns#"
   xmlns:rdf="http://www.w3.org/1999/02/22-rdf-syntax-ns#"
   xmlns:svg="http://www.w3.org/2000/svg"
   xmlns="http://www.w3.org/2000/svg"
   xmlns:sodipodi="http://sodipodi.sourceforge.net/DTD/sodipodi-0.dtd"
   xmlns:inkscape="http://www.inkscape.org/namespaces/inkscape"
   width="190mm"
   height="190mm"
   viewBox="0 0 673.22835 673.22834"
   id="svg2"
   version="1.1"
   inkscape:version="0.91 r13725"
   sodipodi:docname="inscripcion.svg">
  <defs
     id="defs4">
    <linearGradient
       id="linearGradient5584"
       osb:paint="solid">
      <stop
         style="stop-color:#000000;stop-opacity:1;"
         offset="0"
         id="stop5586" />
    </linearGradient>
  </defs>
  <sodipodi:namedview
     id="base"
     pagecolor="#ffffff"
     bordercolor="#666666"
     borderopacity="1.0"
     inkscape:pageopacity="0.0"
     inkscape:pageshadow="2"
     inkscape:zoom="0.49497475"
     inkscape:cx="243.48218"
     inkscape:cy="340.73614"
     inkscape:document-units="px"
     inkscape:current-layer="layer1"
     showgrid="false"
     showguides="true"
     inkscape:guide-bbox="true"
     inkscape:window-width="1600"
     inkscape:window-height="837"
     inkscape:window-x="-8"
     inkscape:window-y="-8"
     inkscape:window-maximized="1">
    <sodipodi:guide
       position="-747.5129,1220.2643"
       orientation="-0.70710678,0.70710678"
       id="guide5689" />
  </sodipodi:namedview>
  <metadata
     id="metadata7">
    <rdf:RDF>
      <cc:Work
         rdf:about="">
        <dc:format>image/svg+xml</dc:format>
        <dc:type
           rdf:resource="http://purl.org/dc/dcmitype/StillImage" />
        <dc:title></dc:title>
      </cc:Work>
    </rdf:RDF>
  </metadata>
  <g
     inkscape:label="Capa 1"
     inkscape:groupmode="layer"
     id="layer1"
     transform="translate(0,-379.13386)">
    <g
       id="g4234"
       style="stroke:#00000f;stroke-opacity:0.94117647">
      <g
         id="g4231"
         style="stroke:#00000f;stroke-opacity:0.94117647">
        <circle
           style="opacity:1;fill:#ffffff;fill-rule:evenodd;stroke:#00000f;stroke-width:19.478;stroke-linecap:butt;stroke-linejoin:miter;stroke-miterlimit:4;stroke-dasharray:none;stroke-opacity:0.94117647;fill-opacity:1"
           id="path3338"
           cx="336.6218"
           cy="715.74036"
           r="324.51102" />
      </g>
    </g>
    <flowRoot
       xml:space="preserve"
       id="flowRoot5679"
       style="font-style:normal;font-weight:normal;font-size:40px;line-height:125%;font-family:sans-serif;letter-spacing:0px;word-spacing:0px;fill:#000000;fill-opacity:1;stroke:none;stroke-width:1px;stroke-linecap:butt;stroke-linejoin:miter;stroke-opacity:1"><flowRegion
         id="flowRegion5681"><rect
           id="rect5683"
           width="658.61945"
           height="155.56349"
           x="48.487324"
           y="763.45856" /></flowRegion><flowPara
         id="flowPara5685" /></flowRoot>    <g
       id="g4290"
       transform="matrix(0.86230436,0,0,0.86230436,158.39504,502.36725)">
      <g
         id="XMLID_144_">
        <path
           d="m 339.277,459.566 -304.355,0 0,-427.12 304.354,0 0,105.873 32.446,-32.447 0,-89.649 C 371.723,7.264 364.458,0 355.5,0 L 18.699,0 C 9.739,0 2.473,7.264 2.473,16.223 l 0,459.568 c 0,8.959 7.265,16.223 16.226,16.223 l 336.801,0 c 8.958,0 16.223,-7.264 16.223,-16.223 l 0,-178.523 -32.446,32.447 0,129.851 z"
           id="XMLID_151_"
           inkscape:connector-curvature="0" />
        <path
           d="m 291.446,71.359 -208.695,0 c -6.843,0 -12.396,5.553 -12.396,12.398 0,6.844 5.553,12.397 12.396,12.397 l 208.694,0 c 6.845,0 12.397,-5.553 12.397,-12.397 0.001,-6.845 -5.552,-12.398 -12.396,-12.398 z"
           id="XMLID_150_"
           inkscape:connector-curvature="0" />
        <path
           d="m 303.843,149.876 c 0,-6.844 -5.553,-12.398 -12.397,-12.398 l -208.695,0 c -6.843,0 -12.396,5.554 -12.396,12.398 0,6.845 5.553,12.398 12.396,12.398 l 208.694,0 c 6.845,0 12.398,-5.552 12.398,-12.398 z"
           id="XMLID_149_"
           inkscape:connector-curvature="0" />
        <path
           d="m 274.004,203.6 -191.253,0 c -6.843,0 -12.396,5.554 -12.396,12.398 0,6.845 5.553,12.397 12.396,12.397 l 166.457,0 24.796,-24.795 z"
           id="XMLID_148_"
           inkscape:connector-curvature="0" />
        <path
           d="m 204.655,285.79 c 1.678,-5.618 4.076,-11.001 6.997,-16.07 l -128.9,0 c -6.843,0 -12.396,5.553 -12.396,12.398 0,6.844 5.553,12.398 12.396,12.398 l 119.304,0 2.599,-8.726 z"
           id="XMLID_147_"
           inkscape:connector-curvature="0" />
        <path
           d="m 82.751,335.842 c -6.843,0 -12.396,5.553 -12.396,12.398 0,6.843 5.553,12.397 12.396,12.397 l 108.9,0 c -3.213,-7.796 -4.044,-16.409 -1.775,-24.795 l -107.125,0 z"
           id="XMLID_146_"
           inkscape:connector-curvature="0" />
        <path
           d="m 479.403,93.903 c -6.496,-6.499 -15.304,-10.146 -24.48,-10.146 -9.176,0 -17.982,3.647 -24.471,10.138 L 247.036,277.316 c -5.005,5.003 -8.676,11.162 -10.703,17.942 l -14.616,48.994 c -0.622,2.074 -0.057,4.318 1.477,5.852 1.122,1.123 2.624,1.727 4.164,1.727 0.558,0 1.13,-0.08 1.688,-0.249 l 48.991,-14.618 c 6.782,-2.026 12.941,-5.699 17.943,-10.702 L 479.402,142.848 c 6.489,-6.49 10.138,-15.295 10.138,-24.472 0,-9.179 -3.648,-17.984 -10.137,-24.473 z"
           id="XMLID_145_"
           inkscape:connector-curvature="0" />
      </g>
      <g
         id="g4254" />
      <g
         id="g4256" />
      <g
         id="g4258" />
      <g
         id="g4260" />
      <g
         id="g4262" />
      <g
         id="g4264" />
      <g
         id="g4266" />
      <g
         id="g4268" />
      <g
         id="g4270" />
      <g
         id="g4272" />
      <g
         id="g4274" />
      <g
         id="g4276" />
      <g
         id="g4278" />
      <g
         id="g4280" />
      <g
         id="g4282" />
    </g>
  </g>
</svg>
