<?xml version="1.0" encoding="UTF-8"?>
<svg xmlns="http://www.w3.org/2000/svg" xmlns:xlink="http://www.w3.org/1999/xlink" width="284.9pt" height="220.8pt" viewBox="0 0 284.9 220.8" version="1.1">
<defs>
<clipPath id="clip1">
  <path d="M 0 0 L 284.898438 0 L 284.898438 220.800781 L 0 220.800781 Z M 0 0 "/>
</clipPath>
</defs>
<g id="surface1">
<g clip-path="url(#clip1)" clip-rule="nonzero">
<path style=" stroke:none;fill-rule:evenodd;fill:rgb(3.529358%,7.054138%,3.921509%);fill-opacity:1;" d="M 26.109375 -0.03125 L 258.890625 -0.03125 C 273.203125 -0.03125 284.914063 11.675781 284.914063 25.988281 L 284.914063 194.773438 C 284.914063 209.085938 273.203125 220.796875 258.890625 220.796875 L 26.109375 220.796875 C 11.796875 220.796875 0.0859375 209.085938 0.0859375 194.773438 L 0.0859375 25.988281 C 0.0859375 11.675781 11.796875 -0.03125 26.109375 -0.03125 Z M 42.417969 15.4375 L 242.582031 15.4375 C 254.886719 15.4375 264.957031 25.507813 264.957031 37.8125 L 264.957031 182.949219 C 264.957031 195.253906 254.886719 205.324219 242.582031 205.324219 L 42.417969 205.324219 C 30.113281 205.324219 20.042969 195.253906 20.042969 182.949219 L 20.042969 37.8125 C 20.042969 25.507813 30.113281 15.4375 42.417969 15.4375 Z M 64.128906 32.375 L 85.933594 32.375 L 85.933594 158.199219 L 64.128906 158.199219 Z M 202.28125 63.472656 L 224.085938 63.472656 L 224.085938 189.296875 L 202.28125 189.296875 Z M 38.042969 182.949219 C 38.042969 182.949219 36.960938 190.726563 45.183594 192.15625 L 180.300781 192.15625 C 180.300781 192.15625 192.808594 191.441406 191.023438 181.433594 L 191.378906 106.367188 C 191.378906 106.367188 191.738281 100.292969 180.65625 101.722656 L 124.539063 100.648438 L 124.539063 53.824219 L 232.539063 53.824219 L 232.539063 80.824219 L 259.539063 80.824219 L 259.539063 40.242188 C 259.539063 40.242188 257.058594 32.160156 253.171875 33.875 L 104.519531 32.375 C 104.519531 32.375 95.226563 33.804688 96.476563 40.417969 L 96.65625 118.878906 C 96.65625 118.878906 94.730469 123.742188 103.019531 125.242188 L 163.140625 125.671875 C 163.140625 125.671875 170.152344 124.457031 169.507813 132.035156 C 168.859375 139.609375 168.859375 164.988281 168.859375 164.988281 C 168.859375 164.988281 169 172.355469 162.496094 171.355469 L 58.765625 171.78125 L 58.765625 142.828125 L 38.035156 142.828125 Z M 38.042969 182.949219 "/>
</g>
</g>
</svg>
